<?xml version="1.0" encoding="UTF-8"?>
<svg width="32px" height="32px" viewBox="0 0 32 32" version="1.1" xmlns="http://www.w3.org/2000/svg" xmlns:xlink="http://www.w3.org/1999/xlink">
    <!-- Generator: Sketch 46.2 (44496) - http://www.bohemiancoding.com/sketch -->
    <title>SOCIAL-ICON</title>
    <desc>Created with Sketch.</desc>
    <defs></defs>
    <g id="WEBSITE" stroke="none" stroke-width="1" fill="none" fill-rule="evenodd">
        <g id="HOME-100%-MENU-OPENED" transform="translate(-1287.000000, -923.000000)" fill-rule="nonzero" fill="#F5F5F5">
            <g id="HOME---100%">
                <g id="TOPO-FIXO">
                    <g id="MENU-OPENED">
                        <g id="SOCIAL-ICON" transform="translate(1287.000000, 923.000000)">
                            <path d="M8.44623648,10 L1.55376352,10 C1.24786455,10 1,10.2346424 1,10.5239892 L1,31.4760108 C1,31.7654624 1.24786455,32 1.55376352,32 L8.44623648,32 C8.75213545,32 9,31.7654624 9,31.4760108 L9,10.5239892 C9,10.2346424 8.75213545,10 8.44623648,10 Z" id="XMLID_802_"></path>
                            <path d="M4.50180879,0 C2.01948867,0 0,2.01827953 0,4.49906774 C0,6.98095273 2.01948867,9 4.50180879,9 C6.98215569,9 9,6.98084305 9,4.49906774 C9.00010962,2.01827953 6.98215569,0 4.50180879,0 Z" id="XMLID_803_"></path>
                            <path d="M23.8043704,10 C21.229134,10 19.3254474,11.1000102 18.1707895,12.3498962 L18.1707895,11.0205679 C18.1707895,10.7379129 17.9402082,10.5086971 17.6556392,10.5086971 L11.5151503,10.5086971 C11.2305813,10.5086971 11,10.7379129 11,11.0205679 L11,31.4880269 C11,31.7707843 11.2305813,31.9998976 11.5151503,31.9998976 L17.9130083,31.9998976 C18.1975773,31.9998976 18.4281586,31.7707843 18.4281586,31.4880269 L18.4281586,21.3613807 C18.4281586,17.9489432 19.3609928,16.6195125 21.7549994,16.6195125 C24.3622782,16.6195125 24.5694717,18.7507376 24.5694717,21.5369524 L24.5694717,31.4881293 C24.5694717,31.7708867 24.800053,32 25.084622,32 L31.4848497,32 C31.7694187,32 32,31.7708867 32,31.4881293 L32,20.2613705 C32,15.1871958 31.0262629,10 23.8043704,10 Z" id="XMLID_804_"></path>
                        </g>
                    </g>
                </g>
            </g>
        </g>
    </g>
</svg>