<?xml version="1.0" encoding="UTF-8"?>
<svg width="74px" height="37px" viewBox="0 0 74 37" version="1.1" xmlns="http://www.w3.org/2000/svg" xmlns:xlink="http://www.w3.org/1999/xlink">
    <!-- Generator: Sketch 46.2 (44496) - http://www.bohemiancoding.com/sketch -->
    <title>EPS</title>
    <desc>Created with Sketch.</desc>
    <defs></defs>
    <g id="WEBSITE" stroke="none" stroke-width="1" fill="none" fill-rule="evenodd">
        <g id="HOME-100%-MENU-CLOSED" transform="translate(-119.000000, -72.000000)" fill="#212121">
            <g id="HOME---100%">
                <g id="TOPO-FIXO">
                    <g id="Logo/Name" transform="translate(117.000000, 59.000000)">
                        <path d="M2.88,47.032 L2.88,15.88 C2.88,15.271997 3.15199728,14.7920018 3.696,14.44 C4.24000272,14.0879982 4.87999632,13.912 5.616,13.912 L22.704,13.912 C23.3440032,13.912 23.8319983,14.1839973 24.168,14.728 C24.5040017,15.2720027 24.672,15.8959965 24.672,16.6 C24.672,17.3680038 24.4960018,18.0239973 24.144,18.568 C23.7919982,19.1120027 23.312003,19.384 22.704,19.384 L9.12,19.384 L9.12,28.984 L16.416,28.984 C17.024003,28.984 17.5039982,29.2319975 17.856,29.728 C18.2080018,30.2240025 18.384,30.8079966 18.384,31.48 C18.384,32.088003 18.2160017,32.6399975 17.88,33.136 C17.5439983,33.6320025 17.0560032,33.88 16.416,33.88 L9.12,33.88 L9.12,43.528 L22.704,43.528 C23.312003,43.528 23.7919982,43.7999973 24.144,44.344 C24.4960018,44.8880027 24.672,45.5439962 24.672,46.312 C24.672,47.0160035 24.5040017,47.6399973 24.168,48.184 C23.8319983,48.7280027 23.3440032,49 22.704,49 L5.616,49 C4.87999632,49 4.24000272,48.8240018 3.696,48.472 C3.15199728,48.1199982 2.88,47.640003 2.88,47.032 Z M28.32,47.032 L28.32,15.832 C28.32,15.3199974 28.5359978,14.8720019 28.968,14.488 C29.4000022,14.1039981 29.9679965,13.912 30.672,13.912 L40.32,13.912 C43.6160165,13.912 46.2559901,14.7839913 48.24,16.528 C50.2240099,18.2720087 51.216,20.9999814 51.216,24.712 L51.216,25 C51.216,28.7440187 50.1840103,31.4959912 48.12,33.256 C46.0559897,35.0160088 43.328017,35.896 39.936,35.896 L34.56,35.896 L34.56,47.032 C34.56,47.640003 34.2480031,48.1199982 33.624,48.472 C32.9999969,48.8240018 32.2720042,49 31.44,49 C30.5759957,49 29.840003,48.8240018 29.232,48.472 C28.623997,48.1199982 28.32,47.640003 28.32,47.032 Z M34.56,31 L39.936,31 C41.536008,31 42.7759956,30.5360046 43.656,29.608 C44.5360044,28.6799954 44.976,27.3040091 44.976,25.48 L44.976,24.904 C44.976,23.0799909 44.5360044,21.7040046 43.656,20.776 C42.7759956,19.8479954 41.536008,19.384 39.936,19.384 L34.56,19.384 L34.56,31 Z M53.328,43.48 C53.328,42.7439963 53.6079972,42.0000038 54.168,41.248 C54.7280028,40.4959962 55.3599965,40.12 56.064,40.12 C56.4800021,40.12 56.9519974,40.3119981 57.48,40.696 C58.0080026,41.0800019 58.5199975,41.5039977 59.016,41.968 C59.5120025,42.4320023 60.2239954,42.8559981 61.152,43.24 C62.0800046,43.6240019 63.1039944,43.816 64.224,43.816 C65.7600077,43.816 67.0399949,43.4640035 68.064,42.76 C69.0880051,42.0559965 69.6,41.0160069 69.6,39.64 C69.6,38.6799952 69.3200028,37.8240038 68.76,37.072 C68.1999972,36.3199962 67.4640046,35.6960025 66.552,35.2 C65.6399954,34.7039975 64.6400054,34.2240023 63.552,33.76 C62.4639946,33.2959977 61.3680055,32.7760029 60.264,32.2 C59.1599945,31.6239971 58.1520046,30.9760036 57.24,30.256 C56.3279954,29.5359964 55.5920028,28.576006 55.032,27.376 C54.4719972,26.175994 54.192,24.8080077 54.192,23.272 C54.192,21.5759915 54.5359966,20.0800065 55.224,18.784 C55.9120034,17.4879935 56.8319942,16.4800036 57.984,15.76 C59.1360058,15.0399964 60.3679934,14.5120017 61.68,14.176 C62.9920066,13.8399983 64.3839926,13.672 65.856,13.672 C66.6880042,13.672 67.5679954,13.7279994 68.496,13.84 C69.4240046,13.9520006 70.4079948,14.1359987 71.448,14.392 C72.4880052,14.6480013 73.3359967,15.0479973 73.992,15.592 C74.6480033,16.1360027 74.976,16.7759963 74.976,17.512 C74.976,18.2160035 74.7520022,18.9439962 74.304,19.696 C73.8559978,20.4480038 73.2480038,20.824 72.48,20.824 C72.1919986,20.824 71.4080064,20.520003 70.128,19.912 C68.8479936,19.303997 67.4240078,19 65.856,19 C64.1279914,19 62.7920047,19.3279967 61.848,19.984 C60.9039953,20.6400033 60.432,21.5439942 60.432,22.696 C60.432,23.6240046 60.8159962,24.4319966 61.584,25.12 C62.3520038,25.8080034 63.3039943,26.3679978 64.44,26.8 C65.5760057,27.2320022 66.8079934,27.7759967 68.136,28.432 C69.4640066,29.0880033 70.6959943,29.7999962 71.832,30.568 C72.9680057,31.3360038 73.9199962,32.4479927 74.688,33.904 C75.4560038,35.3600073 75.84,37.0639902 75.84,39.016 C75.84,42.3440166 74.7920105,44.911991 72.696,46.72 C70.5999895,48.528009 67.8400171,49.432 64.416,49.432 C61.3759848,49.432 58.7680109,48.8080062 56.592,47.56 C54.4159891,46.3119938 53.328,44.9520074 53.328,43.48 Z" id="EPS"></path>
                    </g>
                </g>
            </g>
        </g>
    </g>
</svg>