<svg width="74" height="37" viewBox="0 0 74 37" xmlns="http://www.w3.org/2000/svg"><title>EPS</title><path d="M.88 34.032V2.88c0-.608.272-1.088.816-1.44.544-.352 1.184-.528 1.92-.528h17.088c.64 0 1.128.272 1.464.816.336.544.504 1.168.504 1.872 0 .768-.176 1.424-.528 1.968-.352.544-.832.816-1.44.816H7.12v9.6h7.296c.608 0 1.088.248 1.44.744.352.496.528 1.08.528 1.752 0 .608-.168 1.16-.504 1.656-.336.496-.824.744-1.464.744H7.12v9.648h13.584c.608 0 1.088.272 1.44.816.352.544.528 1.2.528 1.968 0 .704-.168 1.328-.504 1.872-.336.544-.824.816-1.464.816H3.616c-.736 0-1.376-.176-1.92-.528-.544-.352-.816-.832-.816-1.44zm25.44 0v-31.2c0-.512.216-.96.648-1.344.432-.384 1-.576 1.704-.576h9.648c3.296 0 5.936.872 7.92 2.616 1.984 1.744 2.976 4.472 2.976 8.184V12c0 3.744-1.032 6.496-3.096 8.256-2.064 1.76-4.792 2.64-8.184 2.64H32.56v11.136c0 .608-.312 1.088-.936 1.44-.624.352-1.352.528-2.184.528-.864 0-1.6-.176-2.208-.528-.608-.352-.912-.832-.912-1.44zM32.56 18h5.376c1.6 0 2.84-.464 3.72-1.392.88-.928 1.32-2.304 1.32-4.128v-.576c0-1.824-.44-3.2-1.32-4.128-.88-.928-2.12-1.392-3.72-1.392H32.56V18zm18.768 12.48c0-.736.28-1.48.84-2.232.56-.752 1.192-1.128 1.896-1.128.416 0 .888.192 1.416.576.528.384 1.04.808 1.536 1.272.496.464 1.208.888 2.136 1.272.928.384 1.952.576 3.072.576 1.536 0 2.816-.352 3.84-1.056 1.024-.704 1.536-1.744 1.536-3.12 0-.96-.28-1.816-.84-2.568-.56-.752-1.296-1.376-2.208-1.872-.912-.496-1.912-.976-3-1.44-1.088-.464-2.184-.984-3.288-1.56-1.104-.576-2.112-1.224-3.024-1.944-.912-.72-1.648-1.68-2.208-2.88-.56-1.2-.84-2.568-.84-4.104 0-1.696.344-3.192 1.032-4.488.688-1.296 1.608-2.304 2.76-3.024 1.152-.72 2.384-1.248 3.696-1.584C60.992.84 62.384.672 63.856.672c.832 0 1.712.056 2.64.168.928.112 1.912.296 2.952.552 1.04.256 1.888.656 2.544 1.2.656.544.984 1.184.984 1.92 0 .704-.224 1.432-.672 2.184-.448.752-1.056 1.128-1.824 1.128-.288 0-1.072-.304-2.352-.912C66.848 6.304 65.424 6 63.856 6c-1.728 0-3.064.328-4.008.984-.944.656-1.416 1.56-1.416 2.712 0 .928.384 1.736 1.152 2.424.768.688 1.72 1.248 2.856 1.68 1.136.432 2.368.976 3.696 1.632 1.328.656 2.56 1.368 3.696 2.136 1.136.768 2.088 1.88 2.856 3.336.768 1.456 1.152 3.16 1.152 5.112 0 3.328-1.048 5.896-3.144 7.704-2.096 1.808-4.856 2.712-8.28 2.712-3.04 0-5.648-.624-7.824-1.872-2.176-1.248-3.264-2.608-3.264-4.08z" fill="#212121" fill-rule="evenodd"/></svg>