<?xml version="1.0" encoding="UTF-8"?>
<svg width="622px" height="509px" viewBox="0 0 622 509" version="1.1" xmlns="http://www.w3.org/2000/svg" xmlns:xlink="http://www.w3.org/1999/xlink">
    <!-- Generator: Sketch 46.2 (44496) - http://www.bohemiancoding.com/sketch -->
    <title>CONTENT</title>
    <desc>Created with Sketch.</desc>
    <defs>
        <linearGradient x1="52.373407%" y1="48.6573827%" x2="8.34463124%" y2="53.3690365%" id="linearGradient-1">
            <stop stop-color="#2962FF" offset="0%"></stop>
            <stop stop-color="#FAFAFA" stop-opacity="0" offset="100%"></stop>
        </linearGradient>
        <linearGradient x1="62.0036326%" y1="78.430585%" x2="34.7544449%" y2="21.5667676%" id="linearGradient-2">
            <stop stop-color="#2962FF" offset="0%"></stop>
            <stop stop-color="#FAFAFA" stop-opacity="0" offset="100%"></stop>
        </linearGradient>
    </defs>
    <g id="WEBSITE" stroke="none" stroke-width="1" fill="none" fill-rule="evenodd">
        <g id="HOME-100%-MENU-CLOSED" transform="translate(-350.000000, -258.000000)">
            <g id="HOME---100%">
                <g id="CONTENT" transform="translate(336.000000, 278.000000)">
                    <g id="CIRCLE" transform="translate(155.000000, 0.000000)" stroke-width="40" stroke-linecap="round">
                        <ellipse id="--" stroke="url(#linearGradient-1)" stroke-dasharray="1204.140014648438,9999" cx="230.5" cy="234.5" rx="230.5" ry="234.5"></ellipse>
                        <ellipse id="--" stroke="url(#linearGradient-2)" stroke-dasharray="704.1400146484375,9999" transform="translate(230.000000, 234.500000) rotate(-135.000000) translate(-230.000000, -234.500000) " cx="230" cy="234.5" rx="154" ry="156.5"></ellipse>
                    </g>
                    <g id="Logo/Name" transform="translate(0.000000, 77.000000)" fill="#212121">
                        <path d="M14.82,243.873 L14.82,83.57 C14.82,80.4413177 16.2196527,77.9713424 19.019,76.16 C21.8183473,74.3486576 25.1116477,73.443 28.899,73.443 L116.831,73.443 C120.12435,73.443 122.635491,74.8426527 124.3645,77.642 C126.093509,80.4413473 126.958,83.6523152 126.958,87.275 C126.958,91.2270198 126.052342,94.6026527 124.241,97.402 C122.429658,100.201347 119.959682,101.601 116.831,101.601 L46.93,101.601 L46.93,151.001 L84.474,151.001 C87.6026823,151.001 90.0726576,152.277154 91.884,154.8295 C93.6953424,157.381846 94.601,160.386983 94.601,163.845 C94.601,166.973682 93.7365086,169.814154 92.0075,172.3665 C90.2784914,174.918846 87.7673498,176.195 84.474,176.195 L46.93,176.195 L46.93,225.842 L116.831,225.842 C119.959682,225.842 122.429658,227.241653 124.241,230.041 C126.052342,232.840347 126.958,236.21598 126.958,240.168 C126.958,243.790685 126.093509,247.001653 124.3645,249.801 C122.635491,252.600347 120.12435,254 116.831,254 L28.899,254 C25.1116477,254 21.8183473,253.094342 19.019,251.283 C16.2196527,249.471658 14.82,247.001682 14.82,243.873 Z M145.73,243.873 L145.73,83.323 C145.73,80.6883202 146.841489,78.3830099 149.0645,76.407 C151.287511,74.4309901 154.210315,73.443 157.833,73.443 L207.48,73.443 C224.440751,73.443 238.025616,77.9301218 248.235,86.9045 C258.444384,95.8788782 263.549,109.916571 263.549,129.018 L263.549,130.5 C263.549,149.766096 258.238553,163.927288 247.6175,172.984 C236.996447,182.040712 222.958754,186.569 205.504,186.569 L177.84,186.569 L177.84,243.873 C177.84,247.001682 176.234516,249.471658 173.0235,251.283 C169.812484,253.094342 166.066355,254 161.785,254 C157.338978,254 153.551682,253.094342 150.423,251.283 C147.294318,249.471658 145.73,247.001682 145.73,243.873 Z M177.84,161.375 L205.504,161.375 C213.737374,161.375 220.118144,158.987357 224.6465,154.212 C229.174856,149.436643 231.439,142.356047 231.439,132.97 L231.439,130.006 C231.439,120.619953 229.174856,113.539357 224.6465,108.764 C220.118144,103.988643 213.737374,101.601 205.504,101.601 L177.84,101.601 L177.84,161.375 Z M274.417,225.595 C274.417,221.807648 275.857819,217.979186 278.7395,214.1095 C281.621181,210.239814 284.873315,208.305 288.496,208.305 C290.636677,208.305 293.065486,209.29299 295.7825,211.269 C298.499514,213.24501 301.134154,215.426821 303.6865,217.8145 C306.238846,220.202179 309.902643,222.38399 314.678,224.36 C319.453357,226.33601 324.722638,227.324 330.486,227.324 C338.39004,227.324 344.97664,225.512685 350.246,221.89 C355.51536,218.267315 358.15,212.915702 358.15,205.835 C358.15,200.894975 356.709181,196.490186 353.8275,192.6205 C350.945819,188.750814 347.158523,185.539846 342.4655,182.9875 C337.772477,180.435154 332.626695,177.965179 327.028,175.5775 C321.429305,173.189821 315.789528,170.514015 310.1085,167.55 C304.427472,164.585985 299.240523,161.251519 294.5475,157.5465 C289.854477,153.841481 286.067181,148.901531 283.1855,142.7265 C280.303819,136.551469 278.863,129.51204 278.863,121.608 C278.863,112.880623 280.633149,105.182533 284.1735,98.5135 C287.713851,91.8444667 292.44797,86.6575185 298.376,82.9525 C304.30403,79.2474815 310.643633,76.5305086 317.395,74.8015 C324.146367,73.0724914 331.309295,72.208 338.884,72.208 C343.165355,72.208 347.693643,72.4961638 352.469,73.0725 C357.244357,73.6488362 362.307807,74.5956601 367.6595,75.913 C373.011193,77.2303399 377.374816,79.2886527 380.7505,82.088 C384.126184,84.8873473 385.814,88.1806477 385.814,91.968 C385.814,95.5906848 384.661345,99.336814 382.356,103.2065 C380.050655,107.076186 376.92202,109.011 372.97,109.011 C371.487993,109.011 367.4537,107.446682 360.867,104.318 C354.2803,101.189318 346.952707,99.625 338.884,99.625 C329.991956,99.625 323.117191,101.312816 318.2595,104.6885 C313.401809,108.064184 310.973,112.71597 310.973,118.644 C310.973,123.419357 312.94898,127.577149 316.901,131.1175 C320.85302,134.657851 325.751804,137.539489 331.5975,139.7625 C337.443196,141.985511 343.782799,144.784816 350.6165,148.1605 C357.450201,151.536184 363.789804,155.19998 369.6355,159.152 C375.481196,163.10402 380.37998,168.826129 384.332,176.3185 C388.28402,183.810871 390.26,192.579283 390.26,202.624 C390.26,219.749419 384.867221,232.963787 374.0815,242.2675 C363.295779,251.571213 349.093421,256.223 331.474,256.223 C315.830588,256.223 302.410389,253.012032 291.213,246.59 C280.015611,240.167968 274.417,233.169705 274.417,225.595 Z" id="EPS"></path>
                        <path d="M27.4394531,304 L14.9213867,304 L14.9213867,281.870117 L27.4394531,281.870117 L27.4394531,284.927734 L18.5390625,284.927734 L18.5390625,290.952148 L26.8793945,290.952148 L26.8793945,293.979492 L18.5390625,293.979492 L18.5390625,300.927246 L27.4394531,300.927246 L27.4394531,304 Z M32.6226563,304 L32.6226563,281.870117 L36.240332,281.870117 L36.240332,300.896973 L45.6099609,300.896973 L45.6099609,304 L32.6226563,304 Z M62.3424805,304 L49.8244141,304 L49.8244141,281.870117 L62.3424805,281.870117 L62.3424805,284.927734 L53.4420899,284.927734 L53.4420899,290.952148 L61.7824219,290.952148 L61.7824219,293.979492 L53.4420899,293.979492 L53.4420899,300.927246 L62.3424805,300.927246 L62.3424805,304 Z M76.9407227,284.655273 C74.8619362,284.655273 73.227187,285.39192 72.0364258,286.865234 C70.8456646,288.338549 70.250293,290.371895 70.250293,292.965332 C70.250293,295.679864 70.8229598,297.733391 71.9683106,299.125977 C73.1136613,300.518562 74.7711155,301.214844 76.9407227,301.214844 C77.8792039,301.214844 78.787398,301.121502 79.665332,300.934814 C80.5432661,300.748127 81.4565057,300.508465 82.4050781,300.21582 L82.4050781,303.318848 C80.6693924,303.974775 78.7016386,304.302734 76.5017578,304.302734 C73.2624838,304.302734 70.7750412,303.32138 69.0393555,301.358643 C67.3036697,299.395905 66.4358399,296.588072 66.4358399,292.935059 C66.4358399,290.634266 66.857141,288.621102 67.6997559,286.895508 C68.5423708,285.169913 69.7608644,283.847986 71.3552735,282.929688 C72.9496825,282.011389 74.8215713,281.552246 76.9709961,281.552246 C79.2314241,281.552246 81.3202704,282.026525 83.2375977,282.975098 L81.9358399,285.987305 C81.1890913,285.634113 80.3994671,285.323813 79.5669434,285.056396 C78.7344197,284.78898 77.8590215,284.655273 76.9407227,284.655273 Z M95.2171875,304 L91.5995117,304 L91.5995117,284.973145 L85.0907227,284.973145 L85.0907227,281.870117 L101.725977,281.870117 L101.725977,284.973145 L95.2171875,284.973145 L95.2171875,304 Z M109.134277,292.163086 L111.646973,292.163086 C113.332202,292.163086 114.553219,291.850264 115.310059,291.224609 C116.066898,290.598955 116.445313,289.670579 116.445313,288.439453 C116.445313,287.188145 116.036625,286.290042 115.219238,285.745117 C114.401851,285.200193 113.170744,284.927734 111.525879,284.927734 L109.134277,284.927734 L109.134277,292.163086 Z M109.134277,295.160156 L109.134277,304 L105.516602,304 L105.516602,281.870117 L111.768066,281.870117 C114.623875,281.870117 116.737949,282.404943 118.110352,283.474609 C119.482754,284.544276 120.168945,286.158843 120.168945,288.318359 C120.168945,291.073256 118.736017,293.035964 115.870117,294.206543 L122.121582,304 L118.004395,304 L112.706543,295.160156 L109.134277,295.160156 Z M125.730566,304 L125.730566,281.870117 L129.348242,281.870117 L129.348242,304 L125.730566,304 Z M145.006055,284.655273 C142.927268,284.655273 141.292519,285.39192 140.101758,286.865234 C138.910997,288.338549 138.315625,290.371895 138.315625,292.965332 C138.315625,295.679864 138.888292,297.733391 140.033643,299.125977 C141.178993,300.518562 142.836448,301.214844 145.006055,301.214844 C145.944536,301.214844 146.85273,301.121502 147.730664,300.934814 C148.608598,300.748127 149.521838,300.508465 150.47041,300.21582 L150.47041,303.318848 C148.734724,303.974775 146.766971,304.302734 144.56709,304.302734 C141.327816,304.302734 138.840373,303.32138 137.104688,301.358643 C135.369002,299.395905 134.501172,296.588072 134.501172,292.935059 C134.501172,290.634266 134.922473,288.621102 135.765088,286.895508 C136.607703,285.169913 137.826196,283.847986 139.420606,282.929688 C141.015015,282.011389 142.886903,281.552246 145.036328,281.552246 C147.296756,281.552246 149.385602,282.026525 151.30293,282.975098 L150.001172,285.987305 C149.254423,285.634113 148.464799,285.323813 147.632275,285.056396 C146.799752,284.78898 145.924354,284.655273 145.006055,284.655273 Z M178.743555,288.560547 C178.743555,290.871431 177.986726,292.642409 176.473047,293.873535 C174.959367,295.104661 172.804929,295.720215 170.009668,295.720215 L167.708887,295.720215 L167.708887,304 L164.091211,304 L164.091211,281.870117 L170.46377,281.870117 C173.228757,281.870117 175.299944,282.435216 176.677393,283.56543 C178.054841,284.695644 178.743555,286.360666 178.743555,288.560547 Z M167.708887,292.677734 L169.63125,292.677734 C171.48803,292.677734 172.850321,292.354821 173.718164,291.708984 C174.586007,291.063148 175.019922,290.054043 175.019922,288.681641 C175.019922,287.41015 174.631417,286.461592 173.854395,285.835938 C173.077372,285.210283 171.866447,284.897461 170.221582,284.897461 L167.708887,284.897461 L167.708887,292.677734 Z M203.210938,292.904785 C203.210938,296.507342 202.310312,299.307607 200.509033,301.305664 C198.707755,303.303721 196.157243,304.302734 192.857422,304.302734 C189.517236,304.302734 186.951588,303.311289 185.1604,301.328369 C183.369213,299.345449 182.473633,296.527525 182.473633,292.874512 C182.473633,289.221499 183.374259,286.416188 185.175537,284.458496 C186.976816,282.500804 189.547509,281.521973 192.887695,281.521973 C196.177425,281.521973 198.720369,282.515941 200.516602,284.503906 C202.312835,286.491872 203.210938,289.292137 203.210938,292.904785 Z M186.318359,292.904785 C186.318359,295.629408 186.868321,297.69555 187.968262,299.103271 C189.068202,300.510993 190.697906,301.214844 192.857422,301.214844 C195.006847,301.214844 196.628982,300.518562 197.723877,299.125977 C198.818772,297.733391 199.366211,295.659682 199.366211,292.904785 C199.366211,290.190253 198.823817,288.13168 197.739014,286.729004 C196.65421,285.326328 195.03712,284.625 192.887695,284.625 C190.718088,284.625 189.080816,285.326328 187.97583,286.729004 C186.870844,288.13168 186.318359,290.190253 186.318359,292.904785 Z M228.480566,304 L224.54502,304 L220.791113,290.800781 C220.629654,290.225583 220.427833,289.395595 220.185645,288.310791 C219.943456,287.225987 219.797136,286.471682 219.74668,286.047852 C219.645768,286.693688 219.481788,287.531245 219.254736,288.560547 C219.027684,289.589849 218.838477,290.356768 218.687109,290.861328 L215.024024,304 L211.088477,304 L208.227637,292.919922 L205.321387,281.870117 L209.014746,281.870117 L212.17832,294.766602 C212.672789,296.835297 213.025976,298.661776 213.237891,300.246094 C213.348894,299.388342 213.515396,298.429693 213.737402,297.370117 C213.959409,296.310542 214.16123,295.452803 214.342871,294.796875 L217.94541,281.870117 L221.532813,281.870117 L225.226172,294.857422 C225.579364,296.058274 225.952732,297.85448 226.346289,300.246094 C226.497657,298.803053 226.860935,296.966483 227.436133,294.736328 L230.58457,281.870117 L234.247656,281.870117 L228.480566,304 Z M250.299024,304 L237.780957,304 L237.780957,281.870117 L250.299024,281.870117 L250.299024,284.927734 L241.398633,284.927734 L241.398633,290.952148 L249.738965,290.952148 L249.738965,293.979492 L241.398633,293.979492 L241.398633,300.927246 L250.299024,300.927246 L250.299024,304 Z M259.099902,292.163086 L261.612598,292.163086 C263.297828,292.163086 264.518844,291.850264 265.275684,291.224609 C266.032523,290.598955 266.410938,289.670579 266.410938,288.439453 C266.410938,287.188145 266.00225,286.290042 265.184863,285.745117 C264.367476,285.200193 263.136369,284.927734 261.491504,284.927734 L259.099902,284.927734 L259.099902,292.163086 Z M259.099902,295.160156 L259.099902,304 L255.482227,304 L255.482227,281.870117 L261.733691,281.870117 C264.5895,281.870117 266.703574,282.404943 268.075977,283.474609 C269.448379,284.544276 270.13457,286.158843 270.13457,288.318359 C270.13457,291.073256 268.701642,293.035964 265.835742,294.206543 L272.087207,304 L267.97002,304 L262.672168,295.160156 L259.099902,295.160156 Z M296.90918,297.990723 C296.90918,299.958506 296.197761,301.502436 294.774902,302.622559 C293.352044,303.742681 291.389336,304.302734 288.886719,304.302734 C286.384102,304.302734 284.33562,303.914229 282.741211,303.137207 L282.741211,299.716309 C283.750331,300.190595 284.822504,300.563963 285.957764,300.836426 C287.093023,301.108888 288.15006,301.245117 289.128906,301.245117 C290.561856,301.245117 291.618893,300.972659 292.300049,300.427734 C292.981205,299.88281 293.321777,299.151209 293.321777,298.23291 C293.321777,297.405432 293.008955,296.704104 292.383301,296.128906 C291.757647,295.553708 290.465993,294.872563 288.508301,294.085449 C286.490062,293.268062 285.067224,292.334641 284.239746,291.285156 C283.412268,290.235672 282.998535,288.974291 282.998535,287.500977 C282.998535,285.654288 283.654453,284.201177 284.966309,283.141602 C286.278164,282.082026 288.039052,281.552246 290.249024,281.552246 C292.368175,281.552246 294.477203,282.016434 296.576172,282.944824 L295.425781,285.896484 C293.457998,285.069006 291.702156,284.655273 290.158203,284.655273 C288.987624,284.655273 288.099612,284.910072 287.494141,285.419678 C286.888669,285.929283 286.585938,286.60286 286.585938,287.44043 C286.585938,288.015628 286.70703,288.507566 286.949219,288.91626 C287.191408,289.324953 287.590004,289.710936 288.14502,290.074219 C288.700035,290.437502 289.699049,290.916826 291.14209,291.512207 C292.766773,292.188317 293.957516,292.819007 294.714356,293.404297 C295.471195,293.989586 296.026203,294.65055 296.379395,295.387207 C296.732586,296.123864 296.90918,296.991694 296.90918,297.990723 Z M307.844336,291.966309 L313.081641,281.870117 L317.017188,281.870117 L309.645606,295.41748 L309.645606,304 L306.012793,304 L306.012793,295.538574 L298.671484,281.870117 L302.607031,281.870117 L307.844336,291.966309 Z M333.098828,297.990723 C333.098828,299.958506 332.38741,301.502436 330.964551,302.622559 C329.541692,303.742681 327.578984,304.302734 325.076367,304.302734 C322.573751,304.302734 320.525268,303.914229 318.930859,303.137207 L318.930859,299.716309 C319.939979,300.190595 321.012153,300.563963 322.147412,300.836426 C323.282672,301.108888 324.339709,301.245117 325.318555,301.245117 C326.751505,301.245117 327.808542,300.972659 328.489697,300.427734 C329.170853,299.88281 329.511426,299.151209 329.511426,298.23291 C329.511426,297.405432 329.198603,296.704104 328.572949,296.128906 C327.947295,295.553708 326.655641,294.872563 324.697949,294.085449 C322.67971,293.268062 321.256873,292.334641 320.429395,291.285156 C319.601917,290.235672 319.188184,288.974291 319.188184,287.500977 C319.188184,285.654288 319.844102,284.201177 321.155957,283.141602 C322.467813,282.082026 324.2287,281.552246 326.438672,281.552246 C328.557823,281.552246 330.666852,282.016434 332.76582,282.944824 L331.61543,285.896484 C329.647647,285.069006 327.891805,284.655273 326.347852,284.655273 C325.177273,284.655273 324.289261,284.910072 323.683789,285.419678 C323.078317,285.929283 322.775586,286.60286 322.775586,287.44043 C322.775586,288.015628 322.896679,288.507566 323.138867,288.91626 C323.381056,289.324953 323.779652,289.710936 324.334668,290.074219 C324.889684,290.437502 325.888697,290.916826 327.331738,291.512207 C328.956421,292.188317 330.147164,292.819007 330.904004,293.404297 C331.660844,293.989586 332.215851,294.65055 332.569043,295.387207 C332.922235,296.123864 333.098828,296.991694 333.098828,297.990723 Z M345.426563,304 L341.808887,304 L341.808887,284.973145 L335.300098,284.973145 L335.300098,281.870117 L351.935352,281.870117 L351.935352,284.973145 L345.426563,284.973145 L345.426563,304 Z M368.244043,304 L355.725977,304 L355.725977,281.870117 L368.244043,281.870117 L368.244043,284.927734 L359.343652,284.927734 L359.343652,290.952148 L367.683984,290.952148 L367.683984,293.979492 L359.343652,293.979492 L359.343652,300.927246 L368.244043,300.927246 L368.244043,304 Z M382.993652,304 L376.575684,285.518066 L376.45459,285.518066 C376.62614,288.262872 376.711914,290.836088 376.711914,293.237793 L376.711914,304 L373.427246,304 L373.427246,281.870117 L378.52832,281.870117 L384.673828,299.474121 L384.764649,299.474121 L391.091797,281.870117 L396.208008,281.870117 L396.208008,304 L392.726563,304 L392.726563,293.056152 C392.726563,291.956212 392.754313,290.523284 392.809815,288.757324 C392.865316,286.991365 392.913249,285.921714 392.953613,285.54834 L392.83252,285.54834 L386.1875,304 L382.993652,304 Z" id="ELECTRIC-POWER-SYSTE"></path>
                    </g>
                </g>
            </g>
        </g>
    </g>
</svg>