<svg width="622" height="509" viewBox="0 0 622 509" xmlns="http://www.w3.org/2000/svg"><title>CONTENT</title><defs><linearGradient x1="52.373%" y1="48.657%" x2="8.345%" y2="53.369%" id="a"><stop stop-color="#2962FF" offset="0%"/><stop stop-color="#FAFAFA" stop-opacity="0" offset="100%"/></linearGradient><linearGradient x1="62.004%" y1="78.431%" x2="34.754%" y2="21.567%" id="b"><stop stop-color="#2962FF" offset="0%"/><stop stop-color="#FAFAFA" stop-opacity="0" offset="100%"/></linearGradient></defs><g fill="none" fill-rule="evenodd"><g transform="translate(141 20)" stroke-width="40" stroke-linecap="round"><ellipse stroke="url(#a)" stroke-dasharray="1204.140014648438,9999" cx="230.5" cy="234.5" rx="230.5" ry="234.5"/><ellipse stroke="url(#b)" stroke-dasharray="704.1400146484375,9999" transform="rotate(-135 230 234.5)" cx="230" cy="234.5" rx="154" ry="156.5"/></g><g fill="#212121"><path d="M.82 340.873V180.57c0-3.13 1.4-5.6 4.2-7.41 2.798-1.81 6.092-2.717 9.88-2.717h87.93c3.294 0 5.805 1.4 7.535 4.2 1.73 2.798 2.593 6.01 2.593 9.632 0 3.952-.906 7.328-2.717 10.127-1.81 2.8-4.28 4.2-7.41 4.2h-69.9V248h37.544c3.13 0 5.6 1.275 7.41 3.827 1.81 2.552 2.717 5.557 2.717 9.015 0 3.13-.863 5.97-2.593 8.522-1.73 2.552-4.24 3.828-7.533 3.828H32.93v49.647h69.9c3.13 0 5.6 1.4 7.41 4.2 1.812 2.798 2.718 6.174 2.718 10.126 0 3.623-.864 6.834-2.593 9.633-1.73 2.8-4.24 4.2-7.534 4.2H14.9c-3.788 0-7.082-.906-9.88-2.717-2.8-1.81-4.2-4.28-4.2-7.41zm130.91 0v-160.55c0-2.635 1.11-4.94 3.335-6.916 2.223-1.976 5.145-2.964 8.768-2.964h49.647c16.96 0 30.546 4.487 40.755 13.46 10.21 8.976 15.314 23.014 15.314 42.115v1.482c0 19.266-5.31 33.427-15.933 42.484-10.62 9.057-24.658 13.585-42.113 13.585H163.84v57.303c0 3.13-1.605 5.6-4.816 7.41-3.212 1.81-6.958 2.717-11.24 2.717-4.445 0-8.232-.906-11.36-2.717-3.13-1.81-4.694-4.28-4.694-7.41zm32.11-82.498h27.664c8.233 0 14.614-2.388 19.143-7.163 4.528-4.775 6.792-11.856 6.792-21.242v-2.964c0-9.386-2.265-16.467-6.793-21.242-4.53-4.775-10.91-7.163-19.143-7.163H163.84v59.775zm96.577 64.22c0-3.787 1.44-7.616 4.323-11.486 2.88-3.87 6.133-5.805 9.756-5.805 2.14 0 4.57.988 7.287 2.964 2.717 1.975 5.35 4.157 7.904 6.545 2.552 2.387 6.216 4.57 10.99 6.545 4.776 1.976 10.046 2.964 15.81 2.964 7.903 0 14.49-1.81 19.76-5.434 5.268-3.623 7.903-8.974 7.903-16.055 0-4.94-1.44-9.345-4.322-13.214-2.882-3.87-6.67-7.08-11.362-9.632-4.694-2.553-9.84-5.023-15.438-7.41-5.6-2.388-11.238-5.064-16.92-8.028-5.68-2.964-10.867-6.298-15.56-10.004-4.694-3.705-8.48-8.644-11.363-14.82-2.88-6.175-4.322-13.214-4.322-21.118 0-8.727 1.77-16.425 5.31-23.095 3.54-6.67 8.275-11.855 14.203-15.56 5.928-3.706 12.268-6.422 19.02-8.152 6.75-1.728 13.913-2.592 21.488-2.592 4.28 0 8.81.288 13.585.864 4.774.577 9.838 1.524 15.19 2.84 5.35 1.318 9.715 3.377 13.09 6.176 3.376 2.8 5.064 6.093 5.064 9.88 0 3.623-1.153 7.37-3.458 11.238-2.305 3.87-5.434 5.805-9.386 5.805-1.482 0-5.516-1.563-12.103-4.692-6.587-3.13-13.914-4.693-21.983-4.693-8.892 0-15.767 1.688-20.625 5.063-4.858 3.376-7.287 8.028-7.287 13.956 0 4.775 1.976 8.933 5.928 12.473 3.953 3.54 8.852 6.422 14.698 8.645 5.845 2.224 12.185 5.023 19.018 8.398 6.834 3.376 13.174 7.04 19.02 10.992 5.845 3.952 10.744 9.674 14.696 17.166 3.952 7.493 5.928 16.26 5.928 26.306 0 17.125-5.393 30.34-16.178 39.643-10.786 9.304-24.99 13.956-42.608 13.956-15.643 0-29.064-3.21-40.26-9.633-11.198-6.422-16.797-13.42-16.797-20.995zM13.44 401H.92v-22.13h12.52v3.058h-8.9v6.024h8.34v3.027H4.54v6.947h8.9V401zm5.183 0v-22.13h3.617v19.027h9.37V401H18.623zm29.72 0h-12.52v-22.13h12.52v3.058h-8.9v6.024h8.34v3.027h-8.34v6.947h8.9V401zm14.598-19.345c-2.078 0-3.713.737-4.904 2.21-1.19 1.474-1.786 3.507-1.786 6.1 0 2.715.573 4.768 1.718 6.16 1.146 1.394 2.803 2.09 4.973 2.09.94 0 1.847-.093 2.725-.28.878-.187 1.792-.427 2.74-.72v3.104c-1.736.655-3.703.983-5.903.983-3.24 0-5.727-.982-7.463-2.944-1.736-1.964-2.604-4.772-2.604-8.425 0-2.3.42-4.314 1.264-6.04.842-1.725 2.06-3.047 3.655-3.965 1.595-.92 3.467-1.378 5.616-1.378 2.26 0 4.35.475 6.268 1.423l-1.302 3.012c-.747-.353-1.537-.663-2.37-.93-.832-.268-1.707-.402-2.625-.402zM81.218 401H77.6v-19.027h-6.51v-3.103h16.636v3.103h-6.51V401zm13.917-11.837h2.513c1.685 0 2.906-.313 3.663-.938.757-.626 1.135-1.554 1.135-2.786 0-1.252-.408-2.15-1.226-2.695-.818-.545-2.05-.817-3.694-.817h-2.392v7.235zm0 2.997V401h-3.617v-22.13h6.25c2.857 0 4.97.535 6.343 1.605 1.373 1.07 2.06 2.684 2.06 4.843 0 2.755-1.434 4.718-4.3 5.89l6.252 9.792h-4.118l-5.297-8.84h-3.573zM111.73 401v-22.13h3.618V401h-3.617zm19.276-19.345c-2.08 0-3.713.737-4.904 2.21-1.19 1.474-1.786 3.507-1.786 6.1 0 2.715.572 4.768 1.718 6.16 1.145 1.394 2.802 2.09 4.972 2.09.94 0 1.847-.093 2.725-.28.88-.187 1.792-.427 2.74-.72v3.104c-1.735.655-3.703.983-5.903.983-3.24 0-5.727-.982-7.462-2.944-1.736-1.964-2.604-4.772-2.604-8.425 0-2.3.422-4.314 1.265-6.04.843-1.725 2.06-3.047 3.656-3.965 1.595-.92 3.467-1.378 5.616-1.378 2.26 0 4.35.475 6.267 1.423L136 382.987c-.746-.353-1.535-.663-2.368-.93-.832-.268-1.708-.402-2.626-.402zm33.738 3.906c0 2.31-.757 4.082-2.27 5.314-1.515 1.23-3.67 1.846-6.464 1.846h-2.3V401h-3.62v-22.13h6.374c2.765 0 4.836.565 6.213 1.695 1.378 1.13 2.067 2.796 2.067 4.996zm-11.035 4.118h1.92c1.858 0 3.22-.323 4.088-.97.868-.645 1.302-1.654 1.302-3.026 0-1.272-.39-2.22-1.166-2.846-.777-.626-1.988-.94-3.632-.94h-2.513v7.782zm35.5.227c0 3.602-.9 6.403-2.7 8.4-1.802 2-4.353 2.998-7.653 2.998-3.34 0-5.905-.992-7.697-2.975-1.79-1.983-2.686-4.8-2.686-8.453 0-3.654.9-6.46 2.702-8.417 1.8-1.957 4.372-2.936 7.712-2.936 3.29 0 5.832.994 7.63 2.982 1.795 1.988 2.693 4.788 2.693 8.4zm-16.892 0c0 2.724.55 4.79 1.65 6.198 1.1 1.408 2.73 2.112 4.89 2.112 2.15 0 3.77-.696 4.866-2.09 1.095-1.392 1.642-3.465 1.642-6.22 0-2.715-.542-4.773-1.627-6.176-1.086-1.404-2.703-2.105-4.852-2.105-2.17 0-3.807.7-4.912 2.104-1.105 1.402-1.658 3.46-1.658 6.175zM214.48 401h-3.935l-3.754-13.2c-.16-.574-.362-1.404-.604-2.49-.243-1.084-.39-1.838-.44-2.262-.1.646-.264 1.483-.49 2.513-.228 1.03-.418 1.797-.57 2.3L201.025 401h-3.936l-2.86-11.08-2.907-11.05h3.695l3.163 12.897c.495 2.068.848 3.895 1.06 5.48.11-.86.277-1.817.5-2.877.22-1.06.423-1.917.605-2.573l3.602-12.927h3.588l3.693 12.987c.353 1.2.727 2.997 1.12 5.39.152-1.444.515-3.28 1.09-5.51l3.15-12.867h3.662L214.48 401zm21.82 0h-12.52v-22.13h12.52v3.058h-8.9v6.024h8.34v3.027h-8.34v6.947h8.9V401zm8.8-11.837h2.513c1.685 0 2.906-.313 3.663-.938.757-.626 1.135-1.554 1.135-2.786 0-1.252-.408-2.15-1.225-2.695-.818-.545-2.05-.817-3.693-.817H245.1v7.235zm0 2.997V401h-3.618v-22.13h6.252c2.855 0 4.97.535 6.342 1.605 1.372 1.07 2.06 2.684 2.06 4.843 0 2.755-1.434 4.718-4.3 5.89l6.25 9.792h-4.116l-5.298-8.84H245.1zm37.81 2.83c0 1.97-.712 3.512-2.135 4.633-1.423 1.12-3.386 1.68-5.888 1.68-2.503 0-4.55-.39-6.146-1.166v-3.42c1.01.474 2.083.847 3.218 1.12 1.135.272 2.192.408 3.17.408 1.434 0 2.49-.272 3.172-.817.68-.545 1.022-1.277 1.022-2.195 0-.828-.313-1.53-.94-2.104-.624-.576-1.916-1.257-3.874-2.045-2.018-.817-3.44-1.75-4.268-2.8-.828-1.05-1.24-2.31-1.24-3.784 0-1.846.654-3.3 1.966-4.358 1.312-1.06 3.073-1.59 5.283-1.59 2.118 0 4.227.464 6.326 1.393l-1.15 2.95c-1.968-.826-3.724-1.24-5.268-1.24-1.17 0-2.058.255-2.664.765-.605.51-.908 1.183-.908 2.02 0 .576.12 1.068.363 1.476.24.41.64.795 1.195 1.158.555.364 1.554.843 2.997 1.438 1.625.676 2.816 1.307 3.572 1.892.757.586 1.312 1.247 1.665 1.983.353.737.53 1.605.53 2.604zm10.934-6.024l5.238-10.096h3.935l-7.37 13.547V401h-3.634v-8.46l-7.342-13.67h3.937l5.237 10.096zm25.255 6.025c0 1.97-.713 3.512-2.135 4.633-1.423 1.12-3.386 1.68-5.89 1.68-2.5 0-4.55-.39-6.144-1.166v-3.42c1.01.474 2.082.847 3.217 1.12 1.136.272 2.193.408 3.172.408 1.432 0 2.49-.272 3.17-.817.68-.545 1.02-1.277 1.02-2.195 0-.828-.31-1.53-.937-2.104-.626-.576-1.917-1.257-3.875-2.045-2.018-.817-3.44-1.75-4.27-2.8-.826-1.05-1.24-2.31-1.24-3.784 0-1.846.656-3.3 1.968-4.358 1.312-1.06 3.073-1.59 5.283-1.59 2.118 0 4.227.464 6.326 1.393l-1.15 2.95c-1.968-.826-3.724-1.24-5.268-1.24-1.17 0-2.06.255-2.664.765-.606.51-.908 1.183-.908 2.02 0 .576.12 1.068.363 1.476.24.41.64.795 1.195 1.158.555.364 1.554.843 2.997 1.438 1.624.676 2.815 1.307 3.572 1.892.757.586 1.312 1.247 1.665 1.983.352.737.53 1.605.53 2.604zm12.327 6.01h-3.618v-19.027h-6.51v-3.103h16.635v3.103h-6.508V401zm22.817 0h-12.518v-22.13h12.518v3.058h-8.9v6.024h8.34v3.027h-8.34v6.947h8.9V401zm14.75 0l-6.418-18.482h-.12c.17 2.745.256 5.318.256 7.72V401h-3.285v-22.13h5.1l6.147 17.604h.09l6.328-17.604h5.116V401h-3.48v-10.944c0-1.1.026-2.533.082-4.3.055-1.765.103-2.834.144-3.208h-.12L372.186 401h-3.193z"/></g></g></svg>